<?xml version="1.0" encoding="UTF-8" standalone="no"?>
<!DOCTYPE svg PUBLIC "-//W3C//DTD SVG 1.1//EN"
 "http://www.w3.org/Graphics/SVG/1.1/DTD/svg11.dtd">
<!-- Generated by graphviz version 8.0.5 (20230430.1635)
 -->
<!-- Pages: 1 -->
<svg width="730pt" height="404pt"
 viewBox="0.00 0.00 729.95 404.00" xmlns="http://www.w3.org/2000/svg" xmlns:xlink="http://www.w3.org/1999/xlink">
<g id="graph0" class="graph" transform="scale(1 1) rotate(0) translate(4 400)">
<polygon fill="white" stroke="none" points="-4,4 -4,-400 725.95,-400 725.95,4 -4,4"/>
<!-- [root] google_compute_firewall.default (expand) -->
<g id="node1" class="node">
<title>[root] google_compute_firewall.default (expand)</title>
<polygon fill="none" stroke="black" points="571.42,-252 374.67,-252 374.67,-216 571.42,-216 571.42,-252"/>
<text text-anchor="middle" x="473.04" y="-228.95" font-family="Times,serif" font-size="14.00">google_compute_firewall.default</text>
</g>
<!-- [root] google_compute_network.vpc_network (expand) -->
<g id="node3" class="node">
<title>[root] google_compute_network.vpc_network (expand)</title>
<polygon fill="none" stroke="black" points="473.04,-180 241.04,-180 241.04,-144 473.04,-144 473.04,-180"/>
<text text-anchor="middle" x="357.04" y="-156.95" font-family="Times,serif" font-size="14.00">google_compute_network.vpc_network</text>
</g>
<!-- [root] google_compute_firewall.default (expand)&#45;&gt;[root] google_compute_network.vpc_network (expand) -->
<g id="edge1" class="edge">
<title>[root] google_compute_firewall.default (expand)&#45;&gt;[root] google_compute_network.vpc_network (expand)</title>
<path fill="none" stroke="black" d="M444.07,-215.52C429.15,-206.51 410.77,-195.42 394.76,-185.76"/>
<polygon fill="black" stroke="black" points="397.02,-182.43 386.65,-180.26 393.4,-188.42 397.02,-182.43"/>
</g>
<!-- [root] google_compute_instance.vm_instance (expand) -->
<g id="node2" class="node">
<title>[root] google_compute_instance.vm_instance (expand)</title>
<polygon fill="none" stroke="black" points="356.29,-252 125.79,-252 125.79,-216 356.29,-216 356.29,-252"/>
<text text-anchor="middle" x="241.04" y="-228.95" font-family="Times,serif" font-size="14.00">google_compute_instance.vm_instance</text>
</g>
<!-- [root] google_compute_instance.vm_instance (expand)&#45;&gt;[root] google_compute_network.vpc_network (expand) -->
<g id="edge2" class="edge">
<title>[root] google_compute_instance.vm_instance (expand)&#45;&gt;[root] google_compute_network.vpc_network (expand)</title>
<path fill="none" stroke="black" d="M270.02,-215.52C284.94,-206.51 303.31,-195.42 319.33,-185.76"/>
<polygon fill="black" stroke="black" points="320.69,-188.42 327.44,-180.26 317.07,-182.43 320.69,-188.42"/>
</g>
<!-- [root] provider[&quot;registry.terraform.io/hashicorp/google&quot;] -->
<g id="node4" class="node">
<title>[root] provider[&quot;registry.terraform.io/hashicorp/google&quot;]</title>
<polygon fill="none" stroke="black" points="357.04,-108 77.41,-90 357.04,-72 636.67,-90 357.04,-108"/>
<text text-anchor="middle" x="357.04" y="-84.95" font-family="Times,serif" font-size="14.00">provider[&quot;registry.terraform.io/hashicorp/google&quot;]</text>
</g>
<!-- [root] google_compute_network.vpc_network (expand)&#45;&gt;[root] provider[&quot;registry.terraform.io/hashicorp/google&quot;] -->
<g id="edge3" class="edge">
<title>[root] google_compute_network.vpc_network (expand)&#45;&gt;[root] provider[&quot;registry.terraform.io/hashicorp/google&quot;]</title>
<path fill="none" stroke="black" d="M357.04,-143.7C357.04,-136.24 357.04,-127.32 357.04,-118.97"/>
<polygon fill="black" stroke="black" points="360.54,-119.1 357.04,-109.1 353.54,-119.1 360.54,-119.1"/>
</g>
<!-- [root] var.credentials_file -->
<g id="node5" class="node">
<title>[root] var.credentials_file</title>
<polygon fill="none" stroke="black" points="250.79,-36 137.29,-36 137.29,0 256.79,0 256.79,-30 250.79,-36"/>
<polyline fill="none" stroke="black" points="250.79,-36 250.79,-30"/>
<polyline fill="none" stroke="black" points="256.79,-30 250.79,-30"/>
<text text-anchor="middle" x="197.04" y="-12.95" font-family="Times,serif" font-size="14.00">var.credentials_file</text>
</g>
<!-- [root] provider[&quot;registry.terraform.io/hashicorp/google&quot;]&#45;&gt;[root] var.credentials_file -->
<g id="edge7" class="edge">
<title>[root] provider[&quot;registry.terraform.io/hashicorp/google&quot;]&#45;&gt;[root] var.credentials_file</title>
<path fill="none" stroke="black" d="M322.33,-73.81C300.19,-64.13 271.16,-51.43 246.62,-40.69"/>
<polygon fill="black" stroke="black" points="248.33,-37.18 237.76,-36.38 245.52,-43.59 248.33,-37.18"/>
</g>
<!-- [root] var.project -->
<g id="node6" class="node">
<title>[root] var.project</title>
<polygon fill="none" stroke="black" points="342.92,-36 275.17,-36 275.17,0 348.92,0 348.92,-30 342.92,-36"/>
<polyline fill="none" stroke="black" points="342.92,-36 342.92,-30"/>
<polyline fill="none" stroke="black" points="348.92,-30 342.92,-30"/>
<text text-anchor="middle" x="312.04" y="-12.95" font-family="Times,serif" font-size="14.00">var.project</text>
</g>
<!-- [root] provider[&quot;registry.terraform.io/hashicorp/google&quot;]&#45;&gt;[root] var.project -->
<g id="edge8" class="edge">
<title>[root] provider[&quot;registry.terraform.io/hashicorp/google&quot;]&#45;&gt;[root] var.project</title>
<path fill="none" stroke="black" d="M346.38,-72.41C341.21,-64.37 334.87,-54.51 329.06,-45.47"/>
<polygon fill="black" stroke="black" points="331.61,-43.97 323.26,-37.45 325.72,-47.75 331.61,-43.97"/>
</g>
<!-- [root] var.region -->
<g id="node7" class="node">
<title>[root] var.region</title>
<polygon fill="none" stroke="black" points="431.42,-36 366.67,-36 366.67,0 437.42,0 437.42,-30 431.42,-36"/>
<polyline fill="none" stroke="black" points="431.42,-36 431.42,-30"/>
<polyline fill="none" stroke="black" points="437.42,-30 431.42,-30"/>
<text text-anchor="middle" x="402.04" y="-12.95" font-family="Times,serif" font-size="14.00">var.region</text>
</g>
<!-- [root] provider[&quot;registry.terraform.io/hashicorp/google&quot;]&#45;&gt;[root] var.region -->
<g id="edge9" class="edge">
<title>[root] provider[&quot;registry.terraform.io/hashicorp/google&quot;]&#45;&gt;[root] var.region</title>
<path fill="none" stroke="black" d="M367.71,-72.41C372.88,-64.37 379.21,-54.51 385.03,-45.47"/>
<polygon fill="black" stroke="black" points="388.36,-47.75 390.83,-37.45 382.48,-43.97 388.36,-47.75"/>
</g>
<!-- [root] var.zone -->
<g id="node8" class="node">
<title>[root] var.zone</title>
<polygon fill="none" stroke="black" points="510.92,-36 455.17,-36 455.17,0 516.92,0 516.92,-30 510.92,-36"/>
<polyline fill="none" stroke="black" points="510.92,-36 510.92,-30"/>
<polyline fill="none" stroke="black" points="516.92,-30 510.92,-30"/>
<text text-anchor="middle" x="486.04" y="-12.95" font-family="Times,serif" font-size="14.00">var.zone</text>
</g>
<!-- [root] provider[&quot;registry.terraform.io/hashicorp/google&quot;]&#45;&gt;[root] var.zone -->
<g id="edge10" class="edge">
<title>[root] provider[&quot;registry.terraform.io/hashicorp/google&quot;]&#45;&gt;[root] var.zone</title>
<path fill="none" stroke="black" d="M385.67,-73.46C403.2,-63.95 425.91,-51.63 445.29,-41.12"/>
<polygon fill="black" stroke="black" points="446.67,-43.81 453.79,-35.96 443.33,-37.65 446.67,-43.81"/>
</g>
<!-- [root] output.ip (expand) -->
<g id="node9" class="node">
<title>[root] output.ip (expand)</title>
<ellipse fill="none" stroke="black" cx="103.04" cy="-306" rx="103.04" ry="18"/>
<text text-anchor="middle" x="103.04" y="-300.95" font-family="Times,serif" font-size="14.00">[root] output.ip (expand)</text>
</g>
<!-- [root] output.ip (expand)&#45;&gt;[root] google_compute_instance.vm_instance (expand) -->
<g id="edge4" class="edge">
<title>[root] output.ip (expand)&#45;&gt;[root] google_compute_instance.vm_instance (expand)</title>
<path fill="none" stroke="black" d="M135.4,-288.59C153.88,-279.21 177.31,-267.33 197.41,-257.14"/>
<polygon fill="black" stroke="black" points="198.63,-259.93 205.97,-252.29 195.46,-253.69 198.63,-259.93"/>
</g>
<!-- [root] provider[&quot;registry.terraform.io/hashicorp/google&quot;] (close) -->
<g id="node10" class="node">
<title>[root] provider[&quot;registry.terraform.io/hashicorp/google&quot;] (close)</title>
<ellipse fill="none" stroke="black" cx="473.04" cy="-306" rx="248.91" ry="18"/>
<text text-anchor="middle" x="473.04" y="-300.95" font-family="Times,serif" font-size="14.00">[root] provider[&quot;registry.terraform.io/hashicorp/google&quot;] (close)</text>
</g>
<!-- [root] provider[&quot;registry.terraform.io/hashicorp/google&quot;] (close)&#45;&gt;[root] google_compute_firewall.default (expand) -->
<g id="edge5" class="edge">
<title>[root] provider[&quot;registry.terraform.io/hashicorp/google&quot;] (close)&#45;&gt;[root] google_compute_firewall.default (expand)</title>
<path fill="none" stroke="black" d="M473.04,-287.7C473.04,-280.24 473.04,-271.32 473.04,-262.97"/>
<polygon fill="black" stroke="black" points="476.54,-263.1 473.04,-253.1 469.54,-263.1 476.54,-263.1"/>
</g>
<!-- [root] provider[&quot;registry.terraform.io/hashicorp/google&quot;] (close)&#45;&gt;[root] google_compute_instance.vm_instance (expand) -->
<g id="edge6" class="edge">
<title>[root] provider[&quot;registry.terraform.io/hashicorp/google&quot;] (close)&#45;&gt;[root] google_compute_instance.vm_instance (expand)</title>
<path fill="none" stroke="black" d="M416.88,-288.05C384.43,-278.26 343.38,-265.88 309.11,-255.54"/>
<polygon fill="black" stroke="black" points="310.29,-251.94 299.7,-252.4 308.27,-258.64 310.29,-251.94"/>
</g>
<!-- [root] root -->
<g id="node11" class="node">
<title>[root] root</title>
<ellipse fill="none" stroke="black" cx="288.04" cy="-378" rx="49.3" ry="18"/>
<text text-anchor="middle" x="288.04" y="-372.95" font-family="Times,serif" font-size="14.00">[root] root</text>
</g>
<!-- [root] root&#45;&gt;[root] output.ip (expand) -->
<g id="edge11" class="edge">
<title>[root] root&#45;&gt;[root] output.ip (expand)</title>
<path fill="none" stroke="black" d="M254.54,-364.32C226.82,-353.84 186.98,-338.76 155.11,-326.7"/>
<polygon fill="black" stroke="black" points="156.66,-323.16 146.06,-322.9 154.18,-329.71 156.66,-323.16"/>
</g>
<!-- [root] root&#45;&gt;[root] provider[&quot;registry.terraform.io/hashicorp/google&quot;] (close) -->
<g id="edge12" class="edge">
<title>[root] root&#45;&gt;[root] provider[&quot;registry.terraform.io/hashicorp/google&quot;] (close)</title>
<path fill="none" stroke="black" d="M321.55,-364.32C348.42,-354.16 386.69,-339.67 418.04,-327.81"/>
<polygon fill="black" stroke="black" points="418.84,-330.87 426.96,-324.06 416.36,-324.33 418.84,-330.87"/>
</g>
</g>
</svg>
