<?xml version="1.0" encoding="UTF-8" standalone="no"?>
<!DOCTYPE svg PUBLIC "-//W3C//DTD SVG 1.1//EN"
 "http://www.w3.org/Graphics/SVG/1.1/DTD/svg11.dtd">
<!-- Generated by graphviz version 8.0.5 (20230430.1635)
 -->
<!-- Pages: 1 -->
<svg width="1045pt" height="332pt"
 viewBox="0.00 0.00 1045.05 332.00" xmlns="http://www.w3.org/2000/svg" xmlns:xlink="http://www.w3.org/1999/xlink">
<g id="graph0" class="graph" transform="scale(1 1) rotate(0) translate(4 328)">
<polygon fill="white" stroke="none" points="-4,4 -4,-328 1041.05,-328 1041.05,4 -4,4"/>
<!-- [root] docker_container.nginx (expand) -->
<g id="node1" class="node">
<title>[root] docker_container.nginx (expand)</title>
<polygon fill="none" stroke="black" points="632.69,-180 489.19,-180 489.19,-144 632.69,-144 632.69,-180"/>
<text text-anchor="middle" x="560.94" y="-156.95" font-family="Times,serif" font-size="14.00">docker_container.nginx</text>
</g>
<!-- [root] docker_image.nginx (expand) -->
<g id="node2" class="node">
<title>[root] docker_image.nginx (expand)</title>
<polygon fill="none" stroke="black" points="806.82,-108 679.07,-108 679.07,-72 806.82,-72 806.82,-108"/>
<text text-anchor="middle" x="742.94" y="-84.95" font-family="Times,serif" font-size="14.00">docker_image.nginx</text>
</g>
<!-- [root] docker_container.nginx (expand)&#45;&gt;[root] docker_image.nginx (expand) -->
<g id="edge1" class="edge">
<title>[root] docker_container.nginx (expand)&#45;&gt;[root] docker_image.nginx (expand)</title>
<path fill="none" stroke="black" d="M606.4,-143.52C631.03,-134.04 661.66,-122.26 687.66,-112.26"/>
<polygon fill="black" stroke="black" points="688.67,-115.24 696.75,-108.38 686.16,-108.7 688.67,-115.24"/>
</g>
<!-- [root] var.container_name -->
<g id="node4" class="node">
<title>[root] var.container_name</title>
<polygon fill="none" stroke="black" points="616.57,-108 499.32,-108 499.32,-72 622.57,-72 622.57,-102 616.57,-108"/>
<polyline fill="none" stroke="black" points="616.57,-108 616.57,-102"/>
<polyline fill="none" stroke="black" points="622.57,-102 616.57,-102"/>
<text text-anchor="middle" x="560.94" y="-84.95" font-family="Times,serif" font-size="14.00">var.container_name</text>
</g>
<!-- [root] docker_container.nginx (expand)&#45;&gt;[root] var.container_name -->
<g id="edge2" class="edge">
<title>[root] docker_container.nginx (expand)&#45;&gt;[root] var.container_name</title>
<path fill="none" stroke="black" d="M560.94,-143.7C560.94,-136.24 560.94,-127.32 560.94,-118.97"/>
<polygon fill="black" stroke="black" points="564.44,-119.1 560.94,-109.1 557.44,-119.1 564.44,-119.1"/>
</g>
<!-- [root] provider[&quot;registry.terraform.io/kreuzwerker/docker&quot;] -->
<g id="node3" class="node">
<title>[root] provider[&quot;registry.terraform.io/kreuzwerker/docker&quot;]</title>
<polygon fill="none" stroke="black" points="742.94,-36 448.83,-18 742.94,0 1037.05,-18 742.94,-36"/>
<text text-anchor="middle" x="742.94" y="-12.95" font-family="Times,serif" font-size="14.00">provider[&quot;registry.terraform.io/kreuzwerker/docker&quot;]</text>
</g>
<!-- [root] docker_image.nginx (expand)&#45;&gt;[root] provider[&quot;registry.terraform.io/kreuzwerker/docker&quot;] -->
<g id="edge3" class="edge">
<title>[root] docker_image.nginx (expand)&#45;&gt;[root] provider[&quot;registry.terraform.io/kreuzwerker/docker&quot;]</title>
<path fill="none" stroke="black" d="M742.94,-71.7C742.94,-64.24 742.94,-55.32 742.94,-46.97"/>
<polygon fill="black" stroke="black" points="746.44,-47.1 742.94,-37.1 739.44,-47.1 746.44,-47.1"/>
</g>
<!-- [root] output.container_id (expand) -->
<g id="node5" class="node">
<title>[root] output.container_id (expand)</title>
<ellipse fill="none" stroke="black" cx="141.94" cy="-234" rx="141.94" ry="18"/>
<text text-anchor="middle" x="141.94" y="-228.95" font-family="Times,serif" font-size="14.00">[root] output.container_id (expand)</text>
</g>
<!-- [root] output.container_id (expand)&#45;&gt;[root] docker_container.nginx (expand) -->
<g id="edge4" class="edge">
<title>[root] output.container_id (expand)&#45;&gt;[root] docker_container.nginx (expand)</title>
<path fill="none" stroke="black" d="M225.47,-219.04C298.86,-206.78 405.04,-189.05 478.19,-176.82"/>
<polygon fill="black" stroke="black" points="478.45,-180.16 487.74,-175.06 477.3,-173.26 478.45,-180.16"/>
</g>
<!-- [root] output.image_id (expand) -->
<g id="node6" class="node">
<title>[root] output.image_id (expand)</title>
<ellipse fill="none" stroke="black" cx="813.94" cy="-162" rx="130.68" ry="18"/>
<text text-anchor="middle" x="813.94" y="-156.95" font-family="Times,serif" font-size="14.00">[root] output.image_id (expand)</text>
</g>
<!-- [root] output.image_id (expand)&#45;&gt;[root] docker_image.nginx (expand) -->
<g id="edge5" class="edge">
<title>[root] output.image_id (expand)&#45;&gt;[root] docker_image.nginx (expand)</title>
<path fill="none" stroke="black" d="M796.39,-143.7C787.79,-135.22 777.29,-124.86 767.88,-115.58"/>
<polygon fill="black" stroke="black" points="770.87,-113.63 761.29,-109.1 765.95,-118.62 770.87,-113.63"/>
</g>
<!-- [root] provider[&quot;registry.terraform.io/kreuzwerker/docker&quot;] (close) -->
<g id="node7" class="node">
<title>[root] provider[&quot;registry.terraform.io/kreuzwerker/docker&quot;] (close)</title>
<ellipse fill="none" stroke="black" cx="560.94" cy="-234" rx="259.15" ry="18"/>
<text text-anchor="middle" x="560.94" y="-228.95" font-family="Times,serif" font-size="14.00">[root] provider[&quot;registry.terraform.io/kreuzwerker/docker&quot;] (close)</text>
</g>
<!-- [root] provider[&quot;registry.terraform.io/kreuzwerker/docker&quot;] (close)&#45;&gt;[root] docker_container.nginx (expand) -->
<g id="edge6" class="edge">
<title>[root] provider[&quot;registry.terraform.io/kreuzwerker/docker&quot;] (close)&#45;&gt;[root] docker_container.nginx (expand)</title>
<path fill="none" stroke="black" d="M560.94,-215.7C560.94,-208.24 560.94,-199.32 560.94,-190.97"/>
<polygon fill="black" stroke="black" points="564.44,-191.1 560.94,-181.1 557.44,-191.1 564.44,-191.1"/>
</g>
<!-- [root] root -->
<g id="node8" class="node">
<title>[root] root</title>
<ellipse fill="none" stroke="black" cx="560.94" cy="-306" rx="49.3" ry="18"/>
<text text-anchor="middle" x="560.94" y="-300.95" font-family="Times,serif" font-size="14.00">[root] root</text>
</g>
<!-- [root] root&#45;&gt;[root] output.container_id (expand) -->
<g id="edge7" class="edge">
<title>[root] root&#45;&gt;[root] output.container_id (expand)</title>
<path fill="none" stroke="black" d="M516.89,-297.64C450.64,-286.57 323.76,-265.38 236.07,-250.73"/>
<polygon fill="black" stroke="black" points="236.75,-247.12 226.31,-248.93 235.6,-254.03 236.75,-247.12"/>
</g>
<!-- [root] root&#45;&gt;[root] output.image_id (expand) -->
<g id="edge8" class="edge">
<title>[root] root&#45;&gt;[root] output.image_id (expand)</title>
<path fill="none" stroke="black" d="M609.74,-302.54C679.34,-297.89 801.73,-285.12 828.94,-252 843.11,-234.76 836.87,-209.16 828.55,-189.84"/>
<polygon fill="black" stroke="black" points="831.39,-188.66 823.96,-181.11 825.06,-191.65 831.39,-188.66"/>
</g>
<!-- [root] root&#45;&gt;[root] provider[&quot;registry.terraform.io/kreuzwerker/docker&quot;] (close) -->
<g id="edge9" class="edge">
<title>[root] root&#45;&gt;[root] provider[&quot;registry.terraform.io/kreuzwerker/docker&quot;] (close)</title>
<path fill="none" stroke="black" d="M560.94,-287.7C560.94,-280.24 560.94,-271.32 560.94,-262.97"/>
<polygon fill="black" stroke="black" points="564.44,-263.1 560.94,-253.1 557.44,-263.1 564.44,-263.1"/>
</g>
</g>
</svg>
